<?xml version="1.0" standalone="no"?>
<!DOCTYPE svg PUBLIC "-//W3C//DTD SVG 20010904//EN"
 "http://www.w3.org/TR/2001/REC-SVG-20010904/DTD/svg10.dtd">
<svg version="1.0" xmlns="http://www.w3.org/2000/svg"
 width="266.000000pt" height="341.000000pt" viewBox="0 0 266.000000 341.000000"
 preserveAspectRatio="xMidYMid meet">

<g transform="translate(0.000000,341.000000) scale(0.100000,-0.100000)"
fill="#000000" stroke="none">
<path d="M10 2008 c0 -930 4 -1405 10 -1430 21 -74 26 -76 685 -325 l620 -233
619 232 c340 127 630 241 643 252 56 43 53 -28 53 1491 l0 1405 -1315 0 -1315
0 0 -1392z m2600 1182 l0 -170 -1280 0 -1280 0 0 170 0 170 1280 0 1280 0 0
-170z m-1283 -242 c-2 -24 -10 -55 -16 -70 -10 -26 -14 -28 -73 -28 l-63 0 48
-31 c52 -34 54 -42 32 -96 -8 -20 -14 -38 -12 -39 2 -2 20 8 40 21 20 14 38
25 41 25 4 0 6 -34 6 -76 0 -74 -1 -78 -34 -109 -21 -20 -84 -53 -158 -85
-129 -54 -171 -84 -194 -137 -12 -28 -19 -33 -49 -33 -64 0 -105 -27 -214
-140 -87 -91 -111 -110 -135 -110 -27 0 -28 -1 -13 -18 26 -28 37 -70 53 -191
16 -123 37 -177 80 -209 26 -18 27 -21 14 -51 -20 -49 -7 -92 63 -203 75 -122
91 -159 83 -193 -6 -24 7 -35 19 -15 10 16 96 12 201 -11 128 -27 222 -29 258
-6 l26 17 0 -147 -1 -148 -37 42 -37 42 -52 -20 c-56 -22 -62 -29 -38 -49 21
-17 19 -30 -4 -30 -20 0 -31 18 -31 54 0 12 -13 35 -29 51 -26 24 -36 27 -70
22 -31 -4 -44 -1 -57 15 -12 12 -29 18 -49 17 -23 -2 -38 5 -63 30 -27 27 -38
32 -61 28 -25 -5 -31 -2 -41 23 -12 29 -61 57 -79 45 -7 -4 -11 5 -11 24 0 33
-43 75 -70 68 -12 -3 -15 4 -15 33 0 48 -19 70 -60 70 -33 0 -33 1 -22 29 13
36 -3 80 -33 88 -17 5 -19 11 -14 43 8 48 -9 80 -42 80 -24 0 -24 1 -10 22 27
38 20 76 -16 98 -18 11 -27 20 -21 20 15 0 43 52 43 79 0 12 -9 26 -19 33 -19
12 -19 13 5 41 26 31 31 66 12 85 -9 9 -5 19 16 41 23 24 28 36 23 60 -5 24
-2 33 14 41 27 15 42 56 29 80 -9 16 -5 22 19 35 40 20 62 53 55 82 -5 17 -2
23 10 23 26 0 68 47 61 69 -4 14 3 21 35 34 32 12 41 22 46 46 6 27 11 31 38
31 40 0 76 25 76 52 0 14 5 18 15 14 23 -8 66 12 72 33 4 16 11 18 38 14 37
-6 75 11 75 33 0 12 5 14 18 9 68 -29 106 -8 116 61 6 47 5 49 -36 86 -24 20
-53 37 -66 38 -34 0 -62 -18 -62 -41 0 -11 -3 -19 -7 -17 -5 2 -21 10 -36 18
-41 20 -81 -2 -85 -48 -4 -36 -8 -38 -36 -17 -45 34 -108 2 -99 -49 5 -26 5
-26 -23 -11 -38 20 -46 19 -79 -6 -23 -19 -26 -27 -20 -57 l6 -35 -39 7 c-49
7 -66 2 -87 -31 -15 -22 -15 -26 0 -49 l15 -24 -45 0 c-39 0 -46 -4 -59 -29
-13 -25 -13 -31 -1 -47 23 -30 19 -45 -10 -38 -58 14 -105 -58 -65 -101 l21
-22 -40 -7 c-40 -6 -71 -35 -71 -65 0 -8 10 -25 22 -38 l21 -23 -24 0 c-34 0
-56 -19 -62 -53 -3 -22 2 -32 25 -51 l29 -22 -41 -17 c-39 -15 -41 -18 -38
-54 2 -30 9 -41 31 -51 34 -16 34 -27 0 -44 -59 -29 -56 -92 6 -113 l34 -11
-36 -22 c-60 -35 -47 -89 27 -112 l39 -13 -26 -19 c-50 -36 -28 -108 33 -108
37 0 44 -13 20 -35 -47 -43 -13 -105 57 -105 l44 0 -20 -29 c-27 -37 -26 -55
2 -81 15 -15 32 -20 55 -18 36 4 38 1 17 -25 -15 -21 -11 -42 14 -70 13 -16
24 -18 65 -12 l48 6 -6 -34 c-8 -44 0 -64 33 -81 22 -12 31 -12 60 0 43 18 44
18 37 -9 -12 -51 54 -92 100 -62 34 22 44 19 44 -14 0 -51 69 -81 104 -45 9 8
16 11 16 5 0 -21 40 -51 69 -51 21 0 36 9 55 35 43 55 96 46 96 -16 0 -22 5
-39 11 -39 12 0 10 -4 -40 -70 -21 -29 -22 -32 -5 -27 73 22 74 22 74 -17 0
-20 3 -36 8 -36 4 1 25 24 47 53 l40 52 3 -83 3 -84 62 6 c34 3 98 8 142 12
102 8 241 43 328 82 l68 31 -18 28 c-10 15 -22 31 -28 35 -9 7 -7 8 10 8 12 0
115 56 170 93 33 22 97 76 141 119 l82 79 12 -67 13 -67 93 6 94 5 -37 -44
c-44 -55 -163 -155 -261 -219 l-72 -48 21 -24 c13 -12 21 -24 18 -26 -144
-118 -434 -207 -726 -224 l-113 -6 0 -119 c0 -65 -2 -118 -5 -118 -9 0 -1177
440 -1212 457 -67 31 -63 -51 -63 1273 l0 1200 641 0 642 0 -6 -42z m30 -88
c9 -25 17 -30 45 -30 l33 -1 -27 -20 c-23 -17 -26 -24 -18 -45 14 -36 13 -37
-20 -17 -29 17 -31 17 -60 0 -33 -20 -34 -19 -20 17 8 21 5 28 -18 45 l-27 20
33 1 c28 0 36 5 45 30 6 17 14 30 17 30 3 0 11 -13 17 -30z m-209 -106 c2 -1
0 -23 -3 -49 l-7 -46 -18 29 c-10 17 -23 33 -30 37 -8 5 -8 10 1 21 6 7 9 21
5 29 -5 15 2 12 52 -21z m483 -29 l34 -28 -49 5 c-36 4 -56 13 -78 35 l-30 30
45 -7 c27 -4 58 -18 78 -35z m-605 -28 c-3 -12 -6 -33 -6 -47 -1 -23 -2 -24
-13 -6 -7 11 -19 27 -28 36 -10 11 -15 28 -12 44 5 25 6 25 35 10 23 -12 29
-20 24 -37z m757 30 c12 -13 29 -37 38 -53 9 -17 39 -45 68 -62 47 -29 51 -30
51 -12 0 12 -15 29 -40 45 -33 21 -60 57 -60 80 0 2 15 -1 33 -7 53 -18 74
-44 82 -101 5 -45 12 -57 50 -90 l44 -38 6 35 c6 30 3 38 -24 63 -17 15 -34
43 -37 61 l-7 33 36 -21 c45 -27 58 -63 45 -125 -10 -46 -9 -48 24 -82 l35
-35 12 30 c11 26 9 33 -13 67 -15 21 -26 52 -26 69 l1 31 34 -37 c38 -41 44
-76 20 -118 -8 -14 -14 -33 -15 -43 0 -22 70 -118 82 -111 13 8 9 47 -7 68 -8
11 -15 40 -15 64 l0 44 26 -31 c22 -27 25 -38 21 -79 -3 -26 -8 -58 -12 -72
-4 -18 2 -39 21 -73 24 -44 28 -47 42 -33 14 14 14 19 -2 54 -13 28 -16 49
-10 77 l7 38 24 -39 c26 -43 25 -64 -7 -127 -20 -37 -20 -37 2 -94 19 -52 22
-55 34 -38 17 23 17 33 3 72 -8 23 -7 39 4 64 l15 34 15 -36 c19 -42 12 -80
-24 -130 -21 -30 -21 -34 -9 -103 17 -94 18 -101 19 -169 l1 -57 25 16 c17 11
25 25 25 45 0 39 22 89 49 113 l21 19 0 -44 c0 -51 -16 -78 -81 -137 -41 -37
-47 -48 -53 -96 -3 -30 -9 -62 -13 -72 -5 -14 -1 -13 24 6 21 15 33 34 37 59
3 24 18 49 41 71 l35 34 0 -38 c0 -32 -7 -45 -42 -80 -24 -22 -55 -50 -70 -61
-18 -13 -37 -44 -52 -87 l-25 -66 27 7 c16 5 36 23 52 50 14 24 42 52 66 65
l41 23 -14 -41 c-19 -54 -28 -62 -109 -95 -62 -25 -72 -33 -101 -82 -18 -30
-32 -57 -33 -61 0 -10 65 11 68 22 9 26 57 72 89 85 20 8 37 15 38 15 2 0 -6
-18 -16 -40 -23 -48 -64 -75 -133 -90 -43 -9 -59 -19 -104 -68 -48 -51 -44
-36 7 28 26 32 26 31 -9 87 -32 50 -37 90 -17 137 l12 29 20 -36 c17 -32 17
-40 5 -76 -11 -34 -11 -45 0 -66 7 -14 16 -25 20 -25 4 0 22 27 40 61 l32 61
-21 27 c-11 14 -30 43 -41 64 -18 33 -19 42 -8 78 l12 41 18 -24 c15 -18 18
-34 14 -73 -4 -38 -1 -57 13 -78 l18 -28 16 43 c32 87 32 87 -6 127 -48 50
-57 71 -57 133 l1 53 29 -33 c25 -27 30 -41 30 -86 0 -40 5 -57 20 -71 11 -10
20 -16 20 -13 0 2 5 30 11 62 l10 57 -47 42 c-41 38 -48 50 -54 94 l-6 51 23
-15 c32 -21 43 -44 43 -90 0 -27 6 -42 19 -50 17 -11 19 -8 23 25 9 72 -2 113
-36 131 -59 31 -96 76 -96 115 l0 37 31 -16 c33 -18 37 -24 43 -74 3 -32 27
-61 49 -61 4 0 5 21 1 47 -13 88 -17 94 -68 114 -58 22 -81 41 -95 80 -12 33
-4 36 39 14 17 -9 33 -28 40 -49 10 -31 43 -56 56 -43 11 11 -35 103 -57 114
-20 10 -21 13 -6 13 17 0 15 7 -15 62 -23 42 -43 65 -59 69 -17 5 -19 7 -6 8
17 1 17 3 -2 30 -52 73 -77 91 -125 91 -56 0 -111 21 -142 55 l-23 25 29 0
c39 0 77 -18 95 -47 11 -16 25 -23 48 -23 l32 1 -54 49 c-55 50 -55 50 -124
50 -69 0 -124 17 -148 46 -10 12 -4 14 34 14 34 0 53 -6 76 -26 20 -17 40 -24
58 -22 26 3 24 5 -32 41 -33 21 -72 41 -87 44 -16 3 -28 9 -28 13 0 4 -12 12
-26 19 -15 6 -24 14 -21 17 3 3 19 -2 37 -11 32 -16 47 -15 36 3 -3 6 -24 13
-47 17 -22 4 -52 18 -67 31 l-27 23 48 1 c37 0 53 -5 70 -23z m-892 -46 c4 -3
9 -26 13 -50 l7 -45 -21 27 c-11 14 -29 28 -39 32 -12 4 -18 14 -17 34 1 26 3
27 26 18 14 -6 28 -13 31 -16z m843 -33 l39 -15 -47 -7 c-55 -9 -163 22 -129
36 25 10 90 3 137 -14z m-950 -20 c5 -6 26 -71 26 -81 0 -6 -8 -3 -17 6 -10 8
-31 19 -46 23 -21 5 -27 11 -24 24 2 9 1 24 -4 33 -8 13 -4 14 27 7 20 -5 37
-10 38 -12z m-103 -116 c16 -24 24 -42 17 -39 -7 3 -32 11 -55 18 -27 7 -43
17 -43 27 0 8 -7 20 -15 26 -12 9 -7 11 26 11 37 0 43 -4 70 -43z m847 -71
c128 -56 182 -99 182 -145 0 -22 3 -23 43 -19 28 3 54 0 73 -10 26 -13 131
-114 181 -174 10 -12 36 -33 57 -47 32 -22 35 -26 17 -26 -39 0 -76 27 -156
115 -83 92 -133 125 -189 125 -29 0 -37 4 -42 24 -10 42 -66 83 -187 136 -79
35 -127 63 -146 85 l-28 32 -32 -33 c-20 -20 -76 -52 -152 -85 -118 -52 -168
-89 -183 -137 -5 -15 -20 -21 -59 -26 -70 -10 -103 -32 -177 -121 -58 -69
-113 -115 -138 -115 -14 0 208 226 237 240 13 7 46 13 72 13 44 1 48 3 53 30
10 48 64 88 188 140 63 26 132 60 153 76 l39 29 36 -27 c21 -15 92 -51 158
-80z m-164 34 c17 -13 58 -36 91 -51 53 -25 57 -28 40 -40 -10 -8 -33 -14 -51
-14 -23 0 -33 -5 -37 -20 -8 -33 -20 -23 -50 43 l-28 62 -27 -62 c-28 -66 -40
-76 -49 -43 -4 15 -14 20 -37 20 -17 0 -39 7 -49 14 -16 13 -12 17 52 46 39
18 78 41 87 51 21 24 19 24 58 -6z m-775 -54 c37 -46 39 -58 9 -37 -12 9 -37
16 -55 16 -19 0 -33 5 -33 12 0 6 -6 19 -14 27 -13 14 -10 16 24 18 34 2 42
-2 69 -36z m764 -45 c14 -31 57 -225 57 -262 0 -7 -9 -14 -19 -14 -15 0 -21 8
-23 31 -2 18 -11 37 -21 43 -15 9 -22 7 -38 -13 -11 -13 -17 -32 -14 -41 4
-12 -1 -19 -17 -23 -12 -4 -24 -5 -26 -3 -2 2 6 57 17 123 20 111 46 193 61
193 3 0 14 -15 23 -34z m717 9 c16 -8 32 -24 35 -36 4 -11 16 -25 28 -30 17
-7 13 -8 -18 -5 -43 6 -79 28 -103 64 -13 20 -13 22 7 22 12 0 35 -7 51 -15z
m-1560 -67 c48 -40 50 -51 10 -36 -17 5 -44 8 -60 6 -22 -3 -31 1 -39 19 -6
13 -16 24 -23 24 -13 1 36 16 60 18 7 0 31 -14 52 -31z m1629 -49 c21 -7 38
-24 51 -49 11 -21 25 -41 32 -44 7 -3 0 -4 -17 -1 -40 8 -75 34 -97 73 -19 35
-16 37 31 21z m-1701 -71 c50 -38 54 -51 12 -36 -17 5 -41 7 -55 4 -17 -4 -30
0 -48 18 l-24 24 31 10 c17 5 34 10 37 11 3 1 24 -13 47 -31z m-51 -114 c50
-33 53 -38 22 -31 -14 4 -40 2 -57 -3 -27 -7 -34 -6 -42 11 -6 10 -18 19 -28
19 -12 0 -10 4 8 14 37 21 55 19 97 -10z m2038 -109 c-17 -44 -54 -97 -55 -78
0 6 5 15 10 18 6 4 8 25 4 54 -5 35 -2 56 11 81 l17 34 15 -35 c12 -29 12 -38
-2 -74z m-1127 8 c-3 -26 -3 -26 -31 15 -19 30 -24 44 -15 46 40 13 43 12 46
-11 2 -12 2 -35 0 -50z m114 69 c16 -6 15 -12 -12 -52 l-30 -45 0 53 c0 53 5
58 42 44z m-795 -103 c6 -24 12 -73 12 -109 2 -96 17 -139 67 -187 l43 -42
-16 -31 c-23 -47 -11 -93 50 -185 69 -102 87 -138 87 -168 0 -23 3 -24 45 -19
27 3 82 -4 137 -16 148 -33 154 -34 196 -23 22 6 51 20 66 32 31 24 34 12 6
-24 -32 -41 -86 -43 -240 -13 -73 14 -149 26 -170 26 -41 0 -52 9 -68 57 -6
17 -40 78 -76 134 -71 111 -80 144 -50 202 12 22 13 32 5 35 -29 10 -71 56
-85 95 -8 23 -20 87 -26 142 -7 55 -18 115 -26 134 l-14 33 23 -14 c12 -9 27
-34 34 -59z m606 -2 l20 -29 -44 22 c-57 29 -55 27 -34 50 18 20 19 20 28 3 6
-10 19 -31 30 -46z m297 48 c7 -9 11 -17 9 -19 -11 -10 -89 -46 -89 -41 0 13
46 75 56 75 6 0 17 -7 24 -15z m565 -12 c-8 -16 -21 -82 -30 -148 -19 -138
-37 -183 -82 -206 l-33 -16 21 -19 c36 -33 22 -94 -44 -197 -68 -105 -97 -160
-97 -185 0 -14 -9 -18 -42 -20 -24 -1 -107 -14 -184 -28 -151 -28 -195 -27
-236 5 -29 24 -18 38 14 18 45 -28 92 -29 214 -1 76 17 135 25 166 22 45 -5
48 -4 48 18 0 36 16 69 80 168 49 76 60 100 60 135 0 23 -5 52 -11 63 -9 17
-6 26 27 57 47 46 60 78 69 171 8 93 22 150 42 173 24 26 33 21 18 -10z
m-1732 -21 c26 -12 47 -24 47 -25 0 -2 -13 -2 -29 1 -16 2 -38 -1 -50 -7 -16
-9 -26 -8 -47 5 l-26 18 23 17 c13 10 26 16 29 15 3 -2 26 -12 53 -24z m796
-90 c-48 -4 -53 -1 -45 26 7 20 7 20 46 -2 l40 -21 -41 -3z m435 32 c12 -30 5
-34 -56 -34 l-63 1 45 24 c54 29 66 30 74 9z m-1239 -79 c33 -11 35 -13 15
-14 -14 -1 -36 -8 -48 -17 -19 -13 -28 -14 -53 -4 -28 12 -29 14 -13 31 20 22
43 23 99 4z m815 -39 c-49 -26 -60 -25 -60 5 0 16 7 19 53 19 l52 -1 -45 -23z
m430 11 c0 -7 -6 -20 -12 -29 -12 -15 -18 -14 -63 13 l-50 29 63 0 c44 0 62
-4 62 -13z m-382 -90 c-20 -30 -26 -33 -41 -22 -9 7 -17 15 -17 18 0 8 73 47
78 42 2 -2 -7 -19 -20 -38z m278 17 c24 -14 44 -27 44 -28 0 -2 -9 -11 -19
-20 -18 -17 -20 -16 -51 28 -17 25 -28 46 -25 46 4 0 26 -12 51 -26z m-188
-100 c-7 -6 -48 8 -48 17 0 5 10 25 23 44 l22 34 3 -45 c2 -26 2 -48 0 -50z
m105 47 c22 -33 24 -40 11 -45 -36 -14 -44 -7 -44 39 0 25 2 45 4 45 2 0 15
-18 29 -39z m-1042 13 l32 -7 -39 -14 c-22 -9 -50 -15 -64 -14 -62 2 -60 0
-37 27 17 20 28 24 49 20 16 -3 42 -9 59 -12z m912 -100 c21 -5 26 -11 22 -25
-8 -25 11 -59 33 -59 26 0 42 20 42 51 0 23 5 27 37 32 32 6 42 3 61 -18 12
-14 32 -25 42 -25 16 0 20 -7 20 -30 l0 -30 -195 0 c-179 0 -195 1 -195 18 0
21 9 34 35 48 11 6 24 20 30 32 6 13 16 20 25 17 8 -2 28 -7 43 -11z m-849
-35 c6 -5 0 -9 -15 -9 -14 0 -35 -9 -46 -20 -16 -14 -30 -18 -57 -13 -28 4
-33 8 -23 19 7 7 17 20 24 28 13 15 100 11 117 -5z m1171 -89 c4 -7 -83 -10
-254 -10 -167 0 -261 4 -261 10 0 6 91 10 254 10 159 0 257 -4 261 -10z
m-1152 -39 c-17 -11 -35 -26 -40 -34 -4 -8 -26 -16 -49 -18 l-41 -4 18 30 c18
30 45 39 119 44 24 1 24 0 -7 -18z m1187 -1 c0 -6 -105 -10 -295 -10 -190 0
-295 4 -295 10 0 6 105 10 295 10 190 0 295 -4 295 -10z m40 -40 c0 -6 -118
-10 -335 -10 -217 0 -335 4 -335 10 0 6 118 10 335 10 217 0 335 -4 335 -10z
m440 -54 c10 -31 8 -40 -12 -75 -21 -38 -22 -43 -8 -68 25 -45 69 -43 123 6
27 25 59 44 86 50 l42 9 -34 -41 c-37 -45 -83 -65 -153 -66 -33 -1 -52 -10
-95 -43 l-53 -43 32 -3 c23 -2 44 5 74 27 24 16 63 32 88 36 l45 7 -30 -32
c-41 -43 -68 -53 -150 -51 -65 1 -73 -1 -122 -35 -30 -20 -56 -35 -59 -32 -2
3 18 20 46 38 45 29 51 36 46 59 -3 14 -9 49 -12 76 -6 45 -3 54 24 87 28 36
30 37 36 15 11 -40 6 -60 -20 -94 -22 -29 -25 -40 -18 -65 l9 -31 49 45 49 44
-22 48 c-11 27 -21 59 -21 72 0 26 30 94 41 94 4 0 13 -16 19 -34z m-400 14
c0 -6 -132 -10 -375 -10 -243 0 -375 4 -375 10 0 6 132 10 375 10 243 0 375
-4 375 -10z m-1199 -46 c-17 -14 -31 -32 -31 -40 0 -9 -9 -14 -28 -12 -15 1
-33 -1 -39 -5 -9 -5 -9 1 -3 24 12 40 12 41 57 49 72 14 77 12 44 -16z m1229
6 c0 -7 -143 -10 -410 -10 -267 0 -410 3 -410 10 0 7 143 10 410 10 267 0 410
-3 410 -10z m-1151 -121 c-16 -17 -29 -35 -29 -41 0 -5 -9 -7 -20 -3 -10 3
-28 1 -39 -5 -19 -10 -19 -8 -9 22 14 42 11 40 55 48 70 14 73 12 42 -21z
m1340 -67 c1 -8 -17 -31 -38 -52 -30 -30 -38 -44 -33 -62 12 -50 58 -60 123
-27 28 14 55 19 86 17 l47 -3 -42 -29 c-41 -28 -44 -29 -136 -22 -85 6 -98 5
-140 -15 -25 -13 -46 -26 -46 -30 0 -17 45 -15 89 4 40 16 57 19 93 11 l43 -9
-36 -23 c-43 -26 -90 -28 -164 -6 -50 14 -58 14 -115 -4 -52 -16 -59 -20 -46
-31 12 -10 26 -11 65 -1 38 9 58 9 90 -1 23 -7 41 -15 41 -19 0 -8 -70 -30
-96 -30 -11 0 -47 13 -81 29 -52 25 -67 28 -100 20 -58 -13 -98 -9 -43 5 63
15 68 20 85 80 16 56 39 83 93 109 26 13 32 13 32 2 0 -32 -25 -64 -63 -81
-22 -11 -43 -26 -47 -34 -4 -8 -12 -25 -19 -37 -13 -27 -10 -28 60 -7 70 21
79 29 79 74 0 57 17 95 61 129 l39 32 0 -36 c0 -35 -12 -52 -64 -88 -18 -12
-26 -27 -26 -47 0 -17 2 -30 5 -30 3 0 33 14 66 30 l60 31 -6 53 c-8 59 2 86
44 126 25 24 26 24 33 5 3 -11 6 -26 7 -33z m-1242 -9 c-8 -10 -19 -30 -22
-45 -4 -16 -14 -28 -23 -28 -8 0 -23 -6 -31 -14 -14 -13 -16 -11 -16 21 0 32
5 38 45 59 54 28 68 30 47 7z m113 -72 c-5 -11 -10 -31 -10 -46 0 -18 -7 -28
-24 -35 -13 -5 -30 -17 -36 -27 -11 -16 -11 -17 -6 0 3 9 1 28 -4 42 -8 22 -5
27 33 54 50 35 61 38 47 12z m105 -88 c0 -35 -6 -54 -21 -69 l-20 -20 -12 25
c-17 36 -16 41 20 78 18 18 32 33 32 33 1 0 1 -21 1 -47z m119 -26 c0 -39 -6
-59 -20 -73 -20 -20 -20 -20 -32 5 -7 14 -12 29 -12 34 0 6 59 87 64 87 1 0 1
-24 0 -53z m260 -21 c29 -39 33 -56 12 -56 -17 0 -78 74 -69 84 14 13 32 5 57
-28z m190 5 c10 -16 -34 -61 -60 -61 l-25 0 27 35 c26 34 47 44 58 26z m-34
-136 c0 -12 -20 -15 -118 -15 -99 0 -119 3 -119 15 0 12 20 15 119 15 98 0
118 -3 118 -15z m5 -71 c25 -32 25 -34 6 -34 -18 0 -81 55 -81 71 0 18 53 -8
75 -37z m-114 19 c-6 -10 -29 -38 -50 -63 -39 -43 -40 -44 -41 -19 0 36 49 98
78 99 19 0 21 -3 13 -17z"/>
<path d="M260 3195 l0 -85 70 0 c40 0 70 4 70 10 0 6 -22 10 -50 10 l-50 0 0
75 c0 68 -2 75 -20 75 -18 0 -20 -7 -20 -85z"/>
<path d="M445 3255 c-33 -32 -33 -84 -1 -122 20 -23 32 -28 69 -28 54 0 84 23
93 70 7 37 -15 89 -41 99 -39 15 -96 6 -120 -19z m117 -30 c26 -58 -37 -121
-82 -80 -22 20 -27 74 -8 93 7 7 27 12 45 12 26 0 36 -6 45 -25z"/>
<path d="M640 3195 c0 -78 2 -85 20 -85 17 0 20 7 21 53 l1 52 16 -53 c13 -44
19 -52 36 -50 16 2 25 16 38 63 l16 60 1 -62 c1 -56 3 -63 21 -63 18 0 20 7
20 86 l0 85 -31 -3 c-29 -3 -33 -8 -49 -58 l-17 -55 -18 58 c-17 52 -21 57
-47 57 l-28 0 0 -85z"/>
<path d="M870 3195 l0 -85 68 0 c40 0 73 5 80 12 18 18 15 56 -5 67 -15 8 -16
12 -5 22 18 19 15 47 -7 59 -11 5 -45 10 -75 10 l-56 0 0 -85z m108 38 c-2
-12 -14 -19 -36 -21 -27 -3 -32 0 -32 17 0 17 6 21 36 21 28 0 35 -3 32 -17z
m9 -69 c7 -20 -13 -34 -49 -34 -23 0 -28 4 -28 25 0 22 4 25 35 25 23 0 38 -6
42 -16z"/>
<path d="M1082 3257 c-24 -25 -30 -84 -12 -117 15 -29 73 -44 115 -30 41 14
55 35 55 85 0 52 -36 85 -93 85 -33 0 -49 -6 -65 -23z m106 -19 c17 -17 15
-74 -4 -92 -47 -48 -117 23 -79 80 17 26 62 33 83 12z"/>
<path d="M1280 3195 c0 -69 3 -85 15 -85 9 0 15 9 15 23 0 13 9 32 19 41 18
17 20 16 42 -23 16 -30 29 -41 46 -41 13 0 23 2 23 5 0 2 -14 25 -32 50 l-32
45 34 35 c34 35 34 35 9 35 -16 0 -38 -13 -59 -35 -19 -19 -38 -35 -42 -35 -4
0 -8 16 -8 35 0 24 -5 35 -15 35 -12 0 -15 -16 -15 -85z"/>
<path d="M1530 3265 c0 -10 10 -15 30 -15 l30 0 0 -70 c0 -63 2 -70 20 -70 18
0 20 7 20 70 l0 70 30 0 c20 0 30 5 30 15 0 12 -16 15 -80 15 -64 0 -80 -3
-80 -15z"/>
<path d="M1710 3195 c0 -78 2 -85 20 -85 18 0 20 7 20 85 0 78 -2 85 -20 85
-18 0 -20 -7 -20 -85z"/>
<path d="M1790 3195 c0 -69 3 -85 15 -85 12 0 15 14 16 63 0 66 8 61 29 -20 8
-32 16 -43 30 -43 15 0 24 14 39 63 l19 62 1 -62 c1 -49 4 -63 16 -63 12 0 15
16 15 85 l0 85 -28 0 c-27 0 -30 -4 -42 -55 -7 -30 -16 -52 -21 -50 -4 3 -12
27 -19 55 -11 46 -14 50 -41 50 l-29 0 0 -85z"/>
<path d="M2020 3206 c0 -87 11 -101 77 -101 60 0 73 19 73 107 0 61 -2 68 -20
68 -18 0 -20 -7 -20 -70 0 -66 -1 -70 -25 -76 -41 -10 -55 10 -55 82 0 50 -3
64 -15 64 -12 0 -15 -15 -15 -74z"/>
<path d="M2210 3195 c0 -78 2 -85 20 -85 16 0 20 7 20 35 0 52 31 45 74 -16 9
-13 23 -19 37 -17 l22 3 -28 33 -28 33 22 15 c26 19 27 60 2 74 -11 5 -47 10
-80 10 l-61 0 0 -85z m118 33 c3 -15 -4 -18 -37 -18 -35 0 -41 3 -41 21 0 17
5 20 37 17 27 -2 39 -8 41 -20z"/>
<path d="M365 914 l-7 -57 -86 6 -87 7 67 -64 c67 -65 182 -155 249 -195 l37
-21 43 55 c24 30 55 57 69 61 65 16 65 15 14 43 -79 43 -142 89 -214 157 -37
35 -70 64 -73 64 -2 0 -8 -25 -12 -56z"/>
<path d="M2250 945 c-43 -46 -152 -131 -227 -178 -74 -45 -81 -57 -34 -57 20
0 40 -15 79 -60 l53 -60 92 62 c51 35 128 98 172 140 l80 78 -82 -6 -82 -7 -6
29 c-3 16 -9 42 -13 57 l-7 29 -25 -27z"/>
<path d="M682 693 c-10 -4 -7 -9 8 -20 19 -13 24 -13 31 -2 5 8 9 17 9 22 0 8
-28 8 -48 0z"/>
<path d="M1930 680 c9 -17 14 -18 35 -8 29 13 17 28 -23 28 -20 0 -21 -3 -12
-20z"/>
<path d="M573 608 c-71 -80 -71 -80 10 -126 125 -70 330 -130 519 -152 153
-18 442 -8 581 19 182 37 364 106 444 169 l22 17 -67 73 -67 74 -58 -36 c-69
-41 -195 -88 -298 -111 -97 -22 -424 -31 -550 -16 -172 20 -241 43 -469 158
-3 2 -33 -29 -67 -69z m205 -58 c34 -21 37 -27 23 -49 -6 -10 -20 -12 -44 -8
-30 5 -36 2 -41 -16 -4 -16 -8 -19 -16 -11 -8 8 -5 24 11 58 13 25 25 46 28
46 4 0 21 -9 39 -20z m1148 -26 c53 -44 56 -57 8 -48 -31 6 -36 4 -41 -15 -9
-35 -28 -18 -31 28 -3 43 2 71 14 71 3 0 26 -16 50 -36z m-108 -14 c-6 -17 -8
-44 -4 -60 6 -34 -10 -41 -22 -10 -4 10 -22 30 -40 43 -24 18 -29 26 -18 30 8
3 20 -1 26 -9 17 -20 25 -18 38 11 17 36 33 32 20 -5z m-928 -53 c4 -42 2 -57
-7 -57 -7 0 -13 7 -13 15 0 19 -41 37 -54 24 -6 -5 -17 -9 -25 -9 -9 0 2 18
29 45 24 25 49 44 55 42 5 -2 12 -29 15 -60z m125 22 c5 -5 1 -9 -13 -9 -16 0
-24 -9 -33 -40 -7 -22 -18 -40 -25 -40 -9 0 -9 10 2 45 12 43 12 45 -6 45 -11
0 -20 5 -20 11 0 12 79 2 95 -12z m695 6 c6 -8 9 -23 5 -34 -4 -13 1 -24 17
-35 21 -15 21 -16 3 -16 -11 0 -29 7 -39 15 -29 22 -39 18 -34 -10 9 -46 -19
-27 -31 21 -13 49 -9 59 24 67 35 8 42 7 55 -8z m-653 -49 c-5 -35 -3 -45 9
-50 24 -9 32 0 39 44 9 54 29 53 22 -1 -7 -56 -26 -74 -64 -62 -31 11 -38 29
-28 79 9 52 29 43 22 -10z m544 -33 c14 -27 3 -45 -14 -23 -14 19 -47 14 -63
-9 -20 -26 -26 -6 -14 40 18 68 30 77 56 43 12 -15 28 -38 35 -51z m-411 42
c0 -20 5 -25 25 -25 18 0 25 5 25 20 0 11 5 20 10 20 6 0 10 -22 10 -50 0 -38
-4 -50 -15 -50 -8 0 -15 9 -15 19 0 10 -8 22 -17 25 -17 7 -33 -9 -33 -31 0
-7 -4 -13 -10 -13 -11 0 -13 52 -4 88 8 30 24 28 24 -3z m265 -5 c-18 -20 -18
-21 4 -50 25 -35 6 -43 -24 -10 -10 11 -22 20 -27 20 -4 0 -8 -9 -8 -20 0 -11
-7 -20 -15 -20 -11 0 -15 12 -15 50 0 28 5 50 10 50 6 0 10 -9 10 -20 0 -24
15 -27 24 -5 5 15 47 36 55 29 2 -2 -4 -13 -14 -24z"/>
<path d="M747 534 c-13 -13 -7 -24 14 -24 11 0 19 5 17 12 -5 14 -22 21 -31
12z"/>
<path d="M1880 517 c0 -19 16 -31 24 -18 3 5 -1 14 -9 21 -12 10 -15 10 -15
-3z"/>
<path d="M851 476 c-9 -10 -8 -15 4 -20 10 -4 15 1 15 14 0 24 -4 25 -19 6z"/>
<path d="M1653 472 c-21 -13 0 -30 25 -21 13 5 20 13 17 19 -7 12 -25 13 -42
2z"/>
<path d="M1540 433 c0 -13 5 -23 10 -23 13 0 13 11 0 30 -8 12 -10 11 -10 -7z"/>
</g>
</svg>
